<svg xmlns="http://www.w3.org/2000/svg" width="29.26" height="29.261" viewBox="0 0 29.26 29.261">
  <g id="Group_12" data-name="Group 12" transform="translate(-160.497 -33.491)">
    <g id="Page-1" transform="translate(161.003 34.014)">
      <g id="_003---Call" data-name="003---Call" transform="translate(-0.003)">
        <path id="Shape" d="M12.69,16.574A11.4,11.4,0,0,1,9.249,10.1a.968.968,0,0,1,.278-.81l2.181-2.18a.974.974,0,0,0,.137-1.2L8.373.517A.974.974,0,0,0,7.112.162L1.537,2.788A.968.968,0,0,0,1,3.755c.292,2.775,1.5,9.6,8.205,16.3s13.524,7.913,16.3,8.205a.968.968,0,0,0,.967-.536L29.1,22.151a.974.974,0,0,0-.353-1.259L23.355,17.42a.974.974,0,0,0-1.2.136l-2.18,2.181a.968.968,0,0,1-.81.278,11.4,11.4,0,0,1-6.47-3.441Z" transform="translate(-0.997 -0.03)" fill="none" stroke="#fff" stroke-width="1"/>
        <path id="Shape-2" data-name="Shape" d="M37.25,20.223a.974.974,0,0,1-.974-.974,7.311,7.311,0,0,0-7.3-7.3.974.974,0,1,1,0-1.947,9.26,9.26,0,0,1,9.25,9.25A.974.974,0,0,1,37.25,20.223Z" transform="translate(-14.854 -5.132)" fill="none" stroke="#fff" stroke-width="1"/>
        <path id="Shape-3" data-name="Shape" d="M42.118,15.091a.974.974,0,0,1-.974-.974A12.184,12.184,0,0,0,28.974,1.947a.974.974,0,1,1,0-1.947A14.133,14.133,0,0,1,43.091,14.118a.974.974,0,0,1-.974.974Z" transform="translate(-14.854)" fill="none" stroke="#fff" stroke-width="1"/>
      </g>
    </g>
  </g>
</svg>
