<svg xmlns="http://www.w3.org/2000/svg" width="27.292" height="20.469" viewBox="0 0 27.292 20.469">
  <g id="envelope_1_" data-name="envelope (1)" transform="translate(0 -63.986)">
    <g id="Group_7" data-name="Group 7" transform="translate(0 64)">
      <path id="Path_6" data-name="Path 6" d="M25.018,64H2.274A2.277,2.277,0,0,0,0,66.274V82.195a2.277,2.277,0,0,0,2.274,2.274H25.018a2.277,2.277,0,0,0,2.274-2.274V66.274A2.277,2.277,0,0,0,25.018,64ZM2.274,65.137H25.018a1.082,1.082,0,0,1,.236.048c-1.969,1.8-8.5,7.775-10.783,9.834a1.141,1.141,0,0,1-1.651,0c-2.285-2.058-8.814-8.032-10.783-9.833A1.087,1.087,0,0,1,2.274,65.137ZM1.137,82.195V66.274A1.1,1.1,0,0,1,1.2,65.96c1.507,1.379,6.063,5.547,9.017,8.233-2.944,2.529-7.5,6.849-9.02,8.3A1.1,1.1,0,0,1,1.137,82.195Zm23.881,1.137H2.274a1.088,1.088,0,0,1-.256-.052c1.57-1.5,6.156-5.842,9.048-8.316.377.342.722.654.993.9a2.271,2.271,0,0,0,3.173,0c.272-.245.616-.557.994-.9,2.893,2.474,7.478,6.819,9.048,8.316A1.087,1.087,0,0,1,25.018,83.332Zm1.137-1.137a1.1,1.1,0,0,1-.06.3c-1.52-1.449-6.076-5.769-9.02-8.3,2.954-2.686,7.509-6.853,9.017-8.233a1.1,1.1,0,0,1,.064.314Z" transform="translate(0 -64.014)" fill="#fff"/>
    </g>
  </g>
</svg>
