<svg xmlns="http://www.w3.org/2000/svg" width="28.838" height="32.811" viewBox="0 0 28.838 32.811">
  <g id="location_1_" data-name="location (1)" transform="translate(-31)">
    <g id="Group_9" data-name="Group 9" transform="translate(31)">
      <g id="Group_8" data-name="Group 8">
        <path id="Path_7" data-name="Path 7" d="M50.9,21.679c3.492-5.479,3.053-4.8,3.153-4.938a10.5,10.5,0,0,0,1.943-6.1,10.574,10.574,0,1,0-19.149,6.181l3.1,4.86C36.63,22.188,31,23.7,31,27.044c0,1.217.795,2.952,4.58,4.3a30.341,30.341,0,0,0,9.839,1.464c6.923,0,14.419-1.953,14.419-5.768C59.838,23.7,54.215,22.189,50.9,21.679ZM38.45,15.761q-.016-.025-.033-.049a8.651,8.651,0,1,1,14.074-.1c-.093.122.391-.628-7.072,11.081Zm6.969,15.127c-7.562,0-12.5-2.223-12.5-3.845,0-1.09,2.536-2.883,8.155-3.582L44.608,29a.961.961,0,0,0,1.621,0l3.531-5.541c5.619.7,8.155,2.492,8.155,3.582C57.915,28.652,53.025,30.889,45.419,30.889Z" transform="translate(-31)" fill="#fff"/>
      </g>
    </g>
    <g id="Group_11" data-name="Group 11" transform="translate(40.613 5.832)">
      <g id="Group_10" data-name="Group 10">
        <path id="Path_8" data-name="Path 8" d="M185.806,91a4.806,4.806,0,1,0,4.806,4.806A4.812,4.812,0,0,0,185.806,91Zm0,7.69a2.884,2.884,0,1,1,2.884-2.884A2.887,2.887,0,0,1,185.806,98.69Z" transform="translate(-181 -91)" fill="#fff"/>
      </g>
    </g>
  </g>
</svg>
