<svg xmlns="http://www.w3.org/2000/svg" width="104.888" height="55.224" viewBox="0 0 104.888 55.224">
  <g id="لوكو_كلمة_اللوح-01" data-name="لوكو كلمة اللوح-01" transform="translate(-23.114 -15.893)">
    <path id="Path_36" data-name="Path 36" d="M131.054,70.65H130.9a6.571,6.571,0,0,1-3.173-1.531l-.12-.093a1.424,1.424,0,0,1-.524-1.491c.315-1.207,1.7-3.031,3.941-5.889.528-.666,1.176-1.491,1.74-2.25a9.021,9.021,0,0,1-1.4.133,16.978,16.978,0,0,1-11.094-3.7c-4.664-3.608-6.923-7.943-6.918-13.219a17.213,17.213,0,0,1,8.227-14.888A17.919,17.919,0,0,1,148.693,38.82c1.331,6.386-1.114,10.326-3.479,14.138l-.222.355,6.8-.062L151.8,23.04l-.51-.249a1.42,1.42,0,0,1-.8-1.331l.106-3.133a1.425,1.425,0,0,1,.666-1.154,16.57,16.57,0,0,1,5.418-1.247,1.42,1.42,0,0,1,1.331,1.416V53.535l.444-.027c.417-.027.95-.067,1.566-.058h2.228V39.433c0-1.846,0-3.719.036-5.6.035-3.625.071-7.371-.027-10.961l-.5-.271a1.424,1.424,0,0,1-.777-1.185c0-.284-.04-.541-.062-.781-.12-1.38-.271-3.106,2.055-3.923l.306-.111a8.276,8.276,0,0,1,3.843-.666,1.424,1.424,0,0,1,1.256,1.411V55.55c0,2.312.027,3.71-2.627,3.954-.293.027-.7,0-1.189,0h-.293c-15.3-.129-21.637-.036-24.193.084-1.664,2.476-7.1,9.971-8.2,10.774A1.424,1.424,0,0,1,131.054,70.65Zm-.8-3.235a3.142,3.142,0,0,0,.373.209c1.7-1.988,6.745-8.875,7.442-10.109a1.416,1.416,0,0,1,1.14-.714c2.969-.2,11.422-.244,25.112-.129h1.238V18.856a11.538,11.538,0,0,0-1.3.413l-.328.115-.217.093a8.224,8.224,0,0,0,.049.888,2.778,2.778,0,0,1,.7.382,1.429,1.429,0,0,1,.63,1.132c.124,3.909.089,7.988.053,11.941,0,1.877-.036,3.741-.036,5.578V52.94c0,1.163.04,2-.635,2.663s-1.6.679-3.106.652h-1.331c-.524,0-.981.031-1.38.053a3.277,3.277,0,0,1-2.662-.568,3.587,3.587,0,0,1-.821-2.769V18.922c-.6.12-1.278.275-1.775.417l-.044,1.265.484.235a1.411,1.411,0,0,1,.808,1.313V54.675a1.416,1.416,0,0,1-1.407,1.416l-10.379.1h0a1.42,1.42,0,0,1-1.4-1.629,3.634,3.634,0,0,1,.679-1.988c.075-.106.177-.253.32-.475l.382-.621c2.259-3.639,4.211-6.785,3.106-12.061A15.082,15.082,0,0,0,123.1,30.154a14.431,14.431,0,0,0-6.891,12.478c0,4.438,1.842,7.9,5.809,10.965a14,14,0,0,0,9.319,3.106,8.826,8.826,0,0,0,1.7-.231,10.939,10.939,0,0,1,2.5-.293,1.411,1.411,0,0,1,1.4,1.558c-.1,1.061-1.14,2.472-3.657,5.676C132.274,64.633,130.943,66.346,130.251,67.416Zm.967-11.094a14.284,14.284,0,0,1-14.382-11.879h0a13.423,13.423,0,0,1,6.687-14.018,14.643,14.643,0,0,1,16.712.923,13.532,13.532,0,0,1,4.908,14.533,14.2,14.2,0,0,1-11.826,10.313,17.03,17.03,0,0,1-2.1.129ZM119.636,43.963c1.056,6.213,6.789,10.251,13.313,9.408a11.364,11.364,0,0,0,9.456-8.263,10.759,10.759,0,0,0-3.954-11.538,11.834,11.834,0,0,0-13.5-.7,10.5,10.5,0,0,0-5.325,11.094Z" transform="translate(-50.192)" fill="#3e5a7f"/>
    <path id="Path_37" data-name="Path 37" d="M153.807,20.137l-.107,3.128,1.309.657V56.441l-10.384.1c.2-1.331.191-.936.8-1.93,2.481-3.994,4.957-7.544,3.674-13.712a16.461,16.461,0,0,0-9.163-11.267c-9.652-4.73-23.381,1.837-23.39,14.755,0,5.667,2.84,9.368,6.355,12.088a15.474,15.474,0,0,0,10.206,3.4c1.629-.036,2.445-.537,4.167-.528-.146,1.518-6.523,8.294-7.042,10.3a5.375,5.375,0,0,0,2.6,1.331c.914-.67,7.491-9.669,8.245-11.009,4.282-.288,19.7-.169,25.005-.124.346,0,1.025.027,1.331,0,1.531-.138,1.331-.2,1.331-3.515V19.1a7.726,7.726,0,0,0-3.515.706c-1.522.533-1.163,1.331-1.047,3.279l.568.284c.444.217.115-.053.688.328.186,5.711,0,11.728,0,17.475V54.488c.044,2.529.177,2.126-3.639,2.121-2.738,0-3.421.732-3.435-1.873V19.081a16.324,16.324,0,0,0-4.575,1.034M120.02,45.981c-1.975-11.564,12.31-18.771,21.109-11.746,9.359,7.464,4.211,20.972-6.213,22.316A13.04,13.04,0,0,1,120.02,45.981Z" transform="translate(-51.973 -1.77)" fill="#3e5a7f" fill-rule="evenodd"/>
    <path id="Path_38" data-name="Path 38" d="M40.281,82.169c-8.187,0-15.9-6.758-17.027-15.088-1.078-7.8,4.247-15.474,9.869-17.741l.444-.177a19.924,19.924,0,0,1,3.581-1.194,22.931,22.931,0,0,1,9.971.51,12.576,12.576,0,0,1,3.674,1.935c-1.93-3.2-6.261-5.955-9.43-7.291a12.708,12.708,0,0,0-3.878-.794l-.692-.075c-.24-.027-.856,0-1.4,0-2.263.089-4.216.164-4.979-1.127a7.189,7.189,0,0,1-.155-3.781c.484-1.385,2.285-1.633,5.041-1.575a33.342,33.342,0,0,1,4.4.359c9.989,2.1,17.013,8.866,18.833,18.118.639,3.226.537,9.128.39,11.795a1.42,1.42,0,0,1-1.407,1.331H54.224a1.416,1.416,0,0,1-1.429-1.251c-.55-5.733-2.529-8.911-7.047-11.338-4.087-2.192-10.015-.941-13.5,2.853a10.735,10.735,0,0,0-1.1,13.246,12.485,12.485,0,0,0,8.023,5.409h0l.568.08c2.969.391,2.938,1.686,2.6,4.344l-.027.2a1.416,1.416,0,0,1-1.331,1.238C40.738,82.165,40.512,82.169,40.281,82.169Zm.444-31.706a14.515,14.515,0,0,0-2.973.28,17.75,17.75,0,0,0-3.106,1.047l-.444.182C29.675,53.8,25.238,60.487,26.081,66.7A15.167,15.167,0,0,0,39.664,79.311v-.089l-.288-.04-.6-.08a15.381,15.381,0,0,1-10.024-6.714,13.681,13.681,0,0,1,1.416-16.667c4.384-4.766,11.662-6.261,16.929-3.435,4.983,2.663,7.544,6.386,8.382,12.274h.675a55.775,55.775,0,0,0-.4-9.763c-1.6-8.1-7.814-14.049-16.632-15.873a28.382,28.382,0,0,0-6.213-.209v.728a20.821,20.821,0,0,0,2.356,0,13.6,13.6,0,0,1,1.819,0l.675.071a15.394,15.394,0,0,1,4.69,1c4.58,1.9,12.23,6.834,12.194,13.175a1.416,1.416,0,0,1-1.833,1.331,10.18,10.18,0,0,1-2.716-1.637,13.721,13.721,0,0,0-3.745-2.219,21.89,21.89,0,0,0-5.631-.706Z" transform="translate(0 -11.053)" fill="#3e5a7f"/>
    <path id="Path_39" data-name="Path 39" d="M40.752,79.518a13.979,13.979,0,0,1-9.026-6.062A12.206,12.206,0,0,1,33,58.5c4.051-4.438,10.7-5.569,15.216-3.146,4.69,2.521,7.158,5.942,7.8,12.452H59.3a59.559,59.559,0,0,0-.364-11.449c-1.775-9.079-8.875-15.132-17.75-16.982-.994-.2-7.437-.781-7.81.293a7.145,7.145,0,0,0,.04,2.6c.479.812,4.189.293,5.325.417a16.723,16.723,0,0,1,4.966.972c4.287,1.788,11.325,6.421,11.325,11.853-1.389-.444-3.963-3.106-6.488-3.843a21.374,21.374,0,0,0-9.305-.484,21.26,21.26,0,0,0-3.79,1.3c-5.125,2.072-9.94,9.274-8.995,16.237,1.038,7.65,8.431,14.2,16.241,13.841.382-3.009.395-2.7-1.939-3.04" transform="translate(-1.789 -12.874)" fill="#3e5a7f" fill-rule="evenodd"/>
    <path id="Path_40" data-name="Path 40" d="M245.472,59.727a1.416,1.416,0,0,1-1.416-1.411l-.138-35.194a3.47,3.47,0,0,1-.515-.182,1.429,1.429,0,0,1-.839-1.154,6.391,6.391,0,0,1,.333-3.723c.022-.04.049-.08.075-.12.967-1.353,4.1-2.112,5.747-1.966a1.42,1.42,0,0,1,1.291,1.411v40.8a1.424,1.424,0,0,1-1.367,1.42l-3.137.115ZM245.3,20.482a3.106,3.106,0,0,1,.967.621,1.438,1.438,0,0,1,.484,1.065l.133,34.67h.3V18.928a6.039,6.039,0,0,0-1.846.652,4.153,4.153,0,0,0-.04.9Z" transform="translate(-122.01 -0.037)" fill="#3e5a7f"/>
    <path id="Path_41" data-name="Path 41" d="M245.78,23.413c.83.364.586-.146,1.358.533l.142,36.139,3.133-.12v-40.8c-1.367-.124-3.9.59-4.464,1.376a5.851,5.851,0,0,0-.151,2.876" transform="translate(-123.813 -1.811)" fill="#3e5a7f" fill-rule="evenodd"/>
  </g>
</svg>
