<svg id="Layer_1" data-name="Layer 1" xmlns="http://www.w3.org/2000/svg" viewBox="0 0 200 200"><defs><style>.cls-1{fill:#ef6c50;fill-rule:evenodd;}</style></defs><path class="cls-1" d="M87.74,118.59l1.32-31.76a7.27,7.27,0,0,0,1.63,1.23l-.51,31h.59l1.65-30.31a6.95,6.95,0,0,0,7.13-2.6l.54,4.49a17,17,0,0,0-1.31,3,91,91,0,0,0-5.24,23,6.16,6.16,0,0,0,.29,2.51h1.62a4.72,4.72,0,0,1-.4-2.37,86.07,86.07,0,0,1,5.16-22.6c1-2.94,2.55-5.65,5.66-5.65h20.89a5.66,5.66,0,0,1,5.65,5.65v15h1.64a3,3,0,0,1,3,3v7.2a3,3,0,0,1-3,3H93.12a5.77,5.77,0,0,1-5.42-3.73l0,0ZM110,123.33h12.76v2.19H110v-2.19Zm-52-30.67h.57V66h0l2.93-8.68H64l2.27,7.83L64.38,93.77l1.11,1.47H78.85l2.72-2.58h1.9l-6.89,10H64.94l-6.89-10Zm1.94,0h1.45L60,79v13.7ZM94,76.53A5.43,5.43,0,1,0,99.42,82,5.42,5.42,0,0,0,94,76.53Zm-3.3-.69a7,7,0,0,1,2.5-.78L65.61,58.56l.6,2.08L90.7,75.84ZM87.06,82h0a6.92,6.92,0,0,1,3.41-6L66.86,62.87,67.49,65l-.11,1.58L87.06,82Zm1,45.11h2.19v15.6H78.3c5.48-3.69,8-7.44,9.75-15.6ZM107.4,91c-2.5,0-3.73,2.19-4.55,4.55-2.31,6.65-2.51,9-3.13,15.79a4.43,4.43,0,0,0,4.55,4.54h13.2c8.35-.09,11.48-7.62,11.3-10.59V95.56A4.57,4.57,0,0,0,124.22,91Zm8.94,39.29a4.26,4.26,0,1,1-4.25,4.25,4.25,4.25,0,0,1,4.25-4.25Zm16.61,0a4.26,4.26,0,1,1-4.26,4.25A4.25,4.25,0,0,1,133,130.3Zm-33.1,0a4.26,4.26,0,1,1-4.26,4.25,4.25,4.25,0,0,1,4.26-4.25ZM99,126.43a8.15,8.15,0,0,0-8.12,8.12h0A8.14,8.14,0,0,0,99,142.67h34.86a8.15,8.15,0,0,0,8.12-8.12h0a8.15,8.15,0,0,0-8.12-8.12Zm.83,2.12c-3.6,0-6.56,2.7-6.56,6h0c0,3.3,3,6,6.56,6H133a6.32,6.32,0,0,0,6.56-6h0a6.32,6.32,0,0,0-6.56-6Z"/></svg>