<svg id="Layer_1" data-name="Layer 1" xmlns="http://www.w3.org/2000/svg" viewBox="0 0 200 200"><defs><style>.cls-1{fill:#ef6c50;fill-rule:evenodd;}</style></defs><path class="cls-1" d="M70.45,75.77h1l31.27-6.06v0h.12l2.93-.57h5.58l.16.12,8.59,6.55h.3l2.5,1.76-2.5,1.76H117v1.9l0,.12,0,.12v23l0,.12,0,.12V116h14.19v14.36h-40V116h11.56V79.29H73.13V108H71.59V79.29H70.45L68,77.53l2.5-1.76Zm1,33.13a.65.65,0,0,0-.65.65v2.08a.65.65,0,0,0,.65.65H73.3a.65.65,0,0,0,.65-.65v-2.08a.65.65,0,0,0-.65-.65Zm1.9,4.25H71.5v.55a.87.87,0,0,0,.46.73,7.31,7.31,0,0,0,1.13.54,1.92,1.92,0,0,1,.47,3.16,2.6,2.6,0,0,1-3,.28c-.87-.47-1.15-1.35-1.27-1.26-.42.33-.14,1.78.86,2.7a3.76,3.76,0,0,0,5.93-4.26c-.66-1.6-1.7-1.68-2.61-2.26a.48.48,0,0,1-.17-.18Zm25.48,16.4L92,122.41v5.1l2,2Zm10.45,0L97,116.76H92.11l12.25,12.79Zm10.45,0-12.25-12.79h-4.89l12.26,12.79Zm10.46,0-12.25-12.79H113l12.25,12.79Zm.15-10.75-1.95-2h-4.89l6.84,7.15V118.8Zm-25-2.82V104.69l0-.13,0-.12v-23l0-.12,0-.12v-1.9h-.81V116Zm1.16,0h3.92l-3.92-8.71V116Zm5.39,0h3.92v-8.71L111.87,116Zm-9.18-40.21V70.89L77.52,75.77Zm1.82-5.23v5.23h3.25l2.48-5.51h-4.33l-1.4.28ZM115.79,84l-3.62,8h3.62V84Zm0,9.2H111.9l3.89,8.65V93.21Zm-9.31,8.65,3.89-8.65h-3.89v8.65Zm0-9.81h3.62l-3.62-8v8Zm8.34-12.76h-7.37l-.91,2,4.59,10.21,4.6-10.21-.91-2Zm-2.21-7.75,1.9,4.23h3.65l-5.55-4.23Zm.63,4.23-2.11-4.67L109,75.77Zm-6.44,29.38,4.33,9.63h0l4.34-9.63Zm8.67-1.16-4.34-9.64L106.8,104Z"/></svg>