<svg id="Layer_1" data-name="Layer 1" xmlns="http://www.w3.org/2000/svg" viewBox="0 0 200 200"><defs><style>.cls-1{fill:#ef6c50;}</style></defs><path class="cls-1" d="M125.08,131.83a3.78,3.78,0,0,1-2.7-1.12l-3-3a4.06,4.06,0,0,0-4.47-.65l-.07,0-4.73,1.77a2.51,2.51,0,0,1-2.34,0c-1.17-.78-1.17-2.88-1.17-6.69,0-2.14,1.74-4.2,3.93-6.82,3.45-4.11,7.74-9.24,7.74-17.24a18.77,18.77,0,1,0-37.53,0c0,8,4.3,13.13,7.75,17.24,2.19,2.62,3.92,4.68,3.92,6.8,0,3.83,0,5.93-1.16,6.71a2.55,2.55,0,0,1-2.36,0l-4.79-1.8a4.06,4.06,0,0,0-4.47.65l-3,3a3.83,3.83,0,0,1-5.41,0L67,126.43A3.83,3.83,0,0,1,67,121l3-3a4.08,4.08,0,0,0,.66-4.47l0,0-2.38-5.8a4.11,4.11,0,0,0-3.64-2.7H60.41a3.83,3.83,0,0,1-3.83-3.82V95.16a3.83,3.83,0,0,1,3.83-3.82h4.18a4.11,4.11,0,0,0,3.64-2.7l0,0,2.39-5.8A4.1,4.1,0,0,0,70,78.31l-3-3A3.83,3.83,0,0,1,67,70l4.28-4.28a3.83,3.83,0,0,1,5.41,0l3,3a4.06,4.06,0,0,0,4.47.66l.06,0L90,66.87a4.09,4.09,0,0,0,2.69-3.64V59.05a3.83,3.83,0,0,1,3.83-3.82h6a3.83,3.83,0,0,1,3.83,3.82v4.18a4.08,4.08,0,0,0,2.7,3.64l.05,0,5.8,2.39a4.06,4.06,0,0,0,4.47-.66l3-3a3.83,3.83,0,0,1,5.41,0L132.07,70a3.85,3.85,0,0,1,0,5.41l-3,3a4.06,4.06,0,0,0-.65,4.47l0,0,2.38,5.8a4.12,4.12,0,0,0,3.65,2.7h4.17a3.83,3.83,0,0,1,3.83,3.82v6.06a3.83,3.83,0,0,1-3.83,3.82h-4.17a4.12,4.12,0,0,0-3.65,2.7l0,.05-2.38,5.8a4.06,4.06,0,0,0,.65,4.47l3,3a3.83,3.83,0,0,1,0,5.41l-4.28,4.28A3.82,3.82,0,0,1,125.08,131.83Zm-8.44-6.28a5.21,5.21,0,0,1,3.6,1.38l3,3a2.68,2.68,0,0,0,3.78,0l4.28-4.28a2.67,2.67,0,0,0,0-3.77l-3-3a5.27,5.27,0,0,1-.87-5.81l2.34-5.7a5.31,5.31,0,0,1,4.75-3.49h4.17a2.66,2.66,0,0,0,2.67-2.66V95.16a2.67,2.67,0,0,0-2.67-2.67h-4.17A5.29,5.29,0,0,1,129.76,89l-2.34-5.69a5.26,5.26,0,0,1,.87-5.81l3-3a2.67,2.67,0,0,0,0-3.77L127,66.49a2.65,2.65,0,0,0-1.89-.78,2.69,2.69,0,0,0-1.89.78l-3,3a5.23,5.23,0,0,1-5.81.87L108.73,68a5.27,5.27,0,0,1-3.49-4.74V59.05a2.67,2.67,0,0,0-2.67-2.67h-6a2.68,2.68,0,0,0-2.67,2.67v4.18A5.27,5.27,0,0,1,90.36,68l-5.69,2.34a5.25,5.25,0,0,1-5.82-.87l-2.95-3A2.65,2.65,0,0,0,74,65.71a2.69,2.69,0,0,0-1.89.78l-4.27,4.28a2.67,2.67,0,0,0,0,3.77l3,3a5.23,5.23,0,0,1,.87,5.81L69.33,89a5.27,5.27,0,0,1-4.74,3.49H60.41a2.68,2.68,0,0,0-2.67,2.67v6.06a2.67,2.67,0,0,0,2.67,2.66h4.18a5.28,5.28,0,0,1,4.74,3.49l2.34,5.7a5.23,5.23,0,0,1-.87,5.81l-3,3a2.67,2.67,0,0,0,0,3.77l4.27,4.28a2.69,2.69,0,0,0,1.89.78,2.65,2.65,0,0,0,1.89-.78l2.95-3a5.27,5.27,0,0,1,5.81-.87l4.69,1.76c.45.18,1,.35,1.29.16.65-.43.65-2.77.65-5.73,0-1.72-1.61-3.64-3.65-6.07-3.38-4-8-9.57-8-18a19.93,19.93,0,0,1,39.85,0c0,8.42-4.63,14-8,18-2,2.43-3.65,4.35-3.65,6,0,3,0,5.32.65,5.75.28.19.85,0,1.27-.16l4.72-1.76A4.66,4.66,0,0,1,116.64,125.55Z"/><path class="cls-1" d="M125.08,132.08a4,4,0,0,1-2.88-1.19l-3-3a3.79,3.79,0,0,0-4.17-.61l-.09,0-4.75,1.78a2.69,2.69,0,0,1-2.56,0c-1.28-.85-1.28-3-1.28-6.9,0-2.23,1.76-4.32,4-7,3.42-4.08,7.68-9.17,7.68-17.08a18.52,18.52,0,1,0-37,0c0,7.91,4.26,13,7.69,17.08,2.22,2.66,4,4.75,4,7,0,3.91,0,6.07-1.27,6.92a2.75,2.75,0,0,1-2.59,0l-4.78-1.8a3.83,3.83,0,0,0-4.21.6l-3,3a4.08,4.08,0,0,1-5.76,0l-4.28-4.28a4.09,4.09,0,0,1,0-5.77l3-3a3.84,3.84,0,0,0,.61-4.18l0-.06L68,107.83a3.86,3.86,0,0,0-3.41-2.54H60.41a4.08,4.08,0,0,1-4.08-4.07V95.16a4.08,4.08,0,0,1,4.08-4.07h4.18A3.84,3.84,0,0,0,68,88.57l0-.07,2.4-5.81a3.85,3.85,0,0,0-.6-4.2l-3-2.95a4.09,4.09,0,0,1,0-5.77l4.28-4.28a4.08,4.08,0,0,1,5.76,0l3,3a3.8,3.8,0,0,0,4.18.61l.06,0,5.81-2.39a3.83,3.83,0,0,0,2.54-3.41V59.05A4.08,4.08,0,0,1,96.52,55h6a4.08,4.08,0,0,1,4.08,4.07v4.18a3.84,3.84,0,0,0,2.52,3.41l.06,0,5.82,2.39a3.79,3.79,0,0,0,4.19-.6l3-3a4.09,4.09,0,0,1,5.77,0l4.27,4.28a4.09,4.09,0,0,1,0,5.77l-3,2.95a3.8,3.8,0,0,0-.61,4.18l0,.07,2.38,5.8a3.86,3.86,0,0,0,3.42,2.55h4.17a4.08,4.08,0,0,1,4.08,4.07v6.06a4.08,4.08,0,0,1-4.08,4.07h-4.17a3.86,3.86,0,0,0-3.41,2.52l0,.06-2.39,5.82a3.81,3.81,0,0,0,.6,4.2l3,3a4.09,4.09,0,0,1,0,5.77L128,130.89A4,4,0,0,1,125.08,132.08Zm-8.45-5.63a4.29,4.29,0,0,1,3,1.13l3,3a3.57,3.57,0,0,0,5.06,0l4.28-4.28a3.58,3.58,0,0,0,0-5l-2.95-3a4.32,4.32,0,0,1-.7-4.77l2.37-5.78a4.41,4.41,0,0,1,3.9-2.9h4.17a3.57,3.57,0,0,0,3.58-3.57V95.16a3.57,3.57,0,0,0-3.58-3.57h-4.17a4.39,4.39,0,0,1-3.89-2.88l-2.37-5.77a4.34,4.34,0,0,1,.69-4.8l2.95-3a3.59,3.59,0,0,0,0-5.05l-4.28-4.28a3.57,3.57,0,0,0-5.06,0l-3,3a4.36,4.36,0,0,1-4.77.7l-5.78-2.38a4.38,4.38,0,0,1-2.9-3.89V59.05a3.57,3.57,0,0,0-3.58-3.57h-6a3.58,3.58,0,0,0-3.58,3.57v4.18a4.36,4.36,0,0,1-2.87,3.88l-5.78,2.38a4.36,4.36,0,0,1-4.79-.69l-3-3a3.57,3.57,0,0,0-5.06,0L67.2,70.13a3.59,3.59,0,0,0,0,5.05l3,3a4.34,4.34,0,0,1,.7,4.76l-2.38,5.78a4.39,4.39,0,0,1-3.89,2.91H60.41a3.58,3.58,0,0,0-3.58,3.57v6.06a3.58,3.58,0,0,0,3.58,3.57h4.18a4.38,4.38,0,0,1,3.88,2.87l2.37,5.78a4.35,4.35,0,0,1-.68,4.8l-3,3a3.59,3.59,0,0,0,0,5l4.28,4.28a3.57,3.57,0,0,0,5.06,0l3-3a4.32,4.32,0,0,1,4.76-.7L89,128.66a2.32,2.32,0,0,0,2.13.08c1-.71,1-2.77,1-6.51,0-2-1.71-4.06-3.86-6.64-3.48-4.14-7.81-9.31-7.81-17.4a19,19,0,1,1,38,0c0,8.09-4.32,13.25-7.8,17.4-2.16,2.58-3.87,4.61-3.87,6.66,0,3.73,0,5.78,1.06,6.49a2.29,2.29,0,0,0,2.1-.07l4.79-1.8A3.84,3.84,0,0,1,116.63,126.45Zm8.45,4.47a2.91,2.91,0,0,1-2.06-.85l-3-3a4.9,4.9,0,0,0-3.42-1.31,4.56,4.56,0,0,0-2.09.48l-4.74,1.78c-.7.29-1.2.33-1.5.13-.72-.49-.76-2.38-.76-6,0-1.79,1.64-3.74,3.71-6.21,3.36-4,8-9.49,8-17.83a19.68,19.68,0,0,0-39.35,0c0,8.33,4.6,13.82,8,17.83,2.07,2.47,3.71,4.42,3.71,6.23,0,3.57,0,5.45-.76,5.94-.3.2-.8.16-1.52-.14l-4.69-1.76a5,5,0,0,0-5.54.82l-3,3a2.93,2.93,0,0,1-4.13,0l-4.28-4.28a2.93,2.93,0,0,1,0-4.13l3-3a5,5,0,0,0,.83-5.51l-2.35-5.72a5,5,0,0,0-4.51-3.34H60.41a2.92,2.92,0,0,1-2.92-2.91V95.16a2.92,2.92,0,0,1,2.92-2.92h4.18a5,5,0,0,0,4.5-3.31l2.35-5.72a5,5,0,0,0-.82-5.54l-3-3a2.93,2.93,0,0,1,0-4.13L72,66.31a2.93,2.93,0,0,1,4.13,0l3,3a5,5,0,0,0,5.52.82l5.72-2.35a5,5,0,0,0,3.33-4.51V59.05a2.92,2.92,0,0,1,2.92-2.92h6a2.92,2.92,0,0,1,2.92,2.92v4.18a5,5,0,0,0,3.32,4.51l5.71,2.34a5,5,0,0,0,5.54-.81l3-3a2.93,2.93,0,0,1,4.13,0l4.27,4.28a2.91,2.91,0,0,1,0,4.13l-2.95,3a5,5,0,0,0-.83,5.51L130,88.91a5,5,0,0,0,4.52,3.33h4.17a2.92,2.92,0,0,1,2.92,2.92v6.06a2.92,2.92,0,0,1-2.92,2.91h-4.17a5,5,0,0,0-4.51,3.32l-2.35,5.72a5,5,0,0,0,.82,5.53l3,3a2.94,2.94,0,0,1,0,4.13l-4.29,4.28A2.87,2.87,0,0,1,125.08,130.92Zm-8.44-5.62a5.41,5.41,0,0,1,3.78,1.46l3,3a2.43,2.43,0,0,0,3.42,0l4.28-4.28a2.44,2.44,0,0,0,0-3.43l-2.95-3a5.52,5.52,0,0,1-.92-6.11l2.33-5.67a5.56,5.56,0,0,1,5-3.65h4.17a2.41,2.41,0,0,0,2.42-2.41V95.16a2.42,2.42,0,0,0-2.42-2.42h-4.17a5.57,5.57,0,0,1-5-3.66l-2.33-5.68a5.5,5.5,0,0,1,.93-6.08l2.95-3a2.4,2.4,0,0,0,0-3.41l-4.28-4.29a2.48,2.48,0,0,0-3.42,0l-3,3a5.52,5.52,0,0,1-6.11.91l-5.67-2.33a5.55,5.55,0,0,1-3.65-5V59.05a2.42,2.42,0,0,0-2.42-2.42h-6a2.43,2.43,0,0,0-2.42,2.42v4.18a5.55,5.55,0,0,1-3.66,5l-5.68,2.34a5.52,5.52,0,0,1-6.08-.93l-3-3a2.48,2.48,0,0,0-3.42,0L68,71a2.43,2.43,0,0,0,0,3.41l3,3a5.54,5.54,0,0,1,.91,6.11L69.56,89.1a5.54,5.54,0,0,1-5,3.64H60.41A2.43,2.43,0,0,0,58,95.16v6.06a2.42,2.42,0,0,0,2.42,2.41h4.18a5.56,5.56,0,0,1,5,3.67L71.9,113a5.52,5.52,0,0,1-.92,6.08l-3,3a2.45,2.45,0,0,0,0,3.43l4.28,4.27a2.41,2.41,0,0,0,3.42,0l3-3a5.53,5.53,0,0,1,6.09-.92l4.67,1.74c.62.26,1,.27,1.06.19.54-.36.54-2.87.54-5.52,0-1.63-1.58-3.52-3.59-5.91-3.41-4.07-8.08-9.63-8.08-18.15a20.18,20.18,0,0,1,40.35,0c0,8.52-4.67,14.08-8.07,18.15-2,2.39-3.6,4.28-3.6,5.89,0,2.67,0,5.18.54,5.54.11.08.44.07,1-.18l4.72-1.77A5.05,5.05,0,0,1,116.64,125.3Z"/><path class="cls-1" d="M105.75,133.44H93.35a2.28,2.28,0,1,1,0-4.55h12.4a2.28,2.28,0,1,1,0,4.55Zm-12.4-3.39a1.12,1.12,0,1,0,0,2.23h12.4a1.12,1.12,0,1,0,0-2.23Z"/><path class="cls-1" d="M105.75,133.69H93.35a2.53,2.53,0,1,1,0-5.05h12.4a2.53,2.53,0,1,1,0,5.05Zm-12.4-4.55a2,2,0,1,0,0,4.05h12.4a2,2,0,1,0,0-4.05Zm12.4,3.39H93.35a1.37,1.37,0,1,1,0-2.73h12.4a1.37,1.37,0,1,1,0,2.73Zm-12.4-2.23a.87.87,0,1,0,0,1.73h12.4a.87.87,0,1,0,0-1.73Z"/><path class="cls-1" d="M105.75,138.83H93.35a2.28,2.28,0,1,1,0-4.55h12.4a2.28,2.28,0,1,1,0,4.55Zm-12.4-3.4a1.12,1.12,0,1,0,0,2.24h12.4a1.12,1.12,0,1,0,0-2.24Z"/><path class="cls-1" d="M105.75,139.08H93.35a2.53,2.53,0,1,1,0-5.05h12.4a2.53,2.53,0,1,1,0,5.05Zm-12.4-4.55a2,2,0,1,0,0,4.05h12.4a2,2,0,1,0,0-4.05Zm12.4,3.39H93.35a1.37,1.37,0,1,1,0-2.74h12.4a1.37,1.37,0,1,1,0,2.74Zm-12.4-2.24a.87.87,0,1,0,0,1.74h12.4a.87.87,0,1,0,0-1.74Z"/><path class="cls-1" d="M105.07,128.05h-3.81V106.64a24.4,24.4,0,0,1-3.42,0v21.41H94V106c-3.74-1-6.55-3.16-7.56-5.8a5,5,0,0,1,1.28-5.74,5.1,5.1,0,0,1,5.55-.68c2.2,1,4.55,3.66,4.55,8.18v.83a19.53,19.53,0,0,0,3.42,0V102c0-4.52,2.35-7.19,4.55-8.18a5.08,5.08,0,0,1,5.54.68,5,5,0,0,1,1.28,5.73c-1,2.65-3.81,4.8-7.56,5.81Zm-2.66-1.16h1.5V105.12l.45-.11c5.32-1.28,6.85-4.31,7.19-5.21a3.89,3.89,0,0,0-1-4.45,4,4,0,0,0-4.31-.5c-1.87.84-3.87,3.16-3.87,7.13v1.88l-.51,0a21.81,21.81,0,0,1-4.71,0l-.51,0V102c0-4-2-6.28-3.87-7.13a3.94,3.94,0,0,0-4.3.5,3.87,3.87,0,0,0-1,4.45c.34.9,1.86,3.93,7.19,5.21l.44.11v21.77h1.5V105.37l.64.06a23.73,23.73,0,0,0,4.46,0l.63-.06Zm1.5-23.3V102c0-3.25,1.55-5.11,3-5.76a2.46,2.46,0,0,1,2.69.25,2.42,2.42,0,0,1,.56,2.8c-.69,1.81-2.69,3.3-5.5,4.11Zm4.23-6.49a1.91,1.91,0,0,0-.77.18c-1.11.5-2.3,2-2.3,4.7v0c2-.73,3.51-1.88,4-3.17a1.27,1.27,0,0,0-.24-1.53A1,1,0,0,0,108.14,97.1Zm-13,6.49-.74-.21c-2.8-.81-4.81-2.3-5.49-4.11a2.4,2.4,0,0,1,.55-2.8,2.47,2.47,0,0,1,2.7-.25c1.44.65,3,2.51,3,5.76ZM91,97.1a1,1,0,0,0-.69.23A1.27,1.27,0,0,0,90,98.86c.49,1.29,2,2.44,4,3.17v0c0-2.7-1.19-4.2-2.3-4.7A1.87,1.87,0,0,0,91,97.1Z"/><path class="cls-1" d="M105.32,128.3H101V106.91a28.44,28.44,0,0,1-2.92,0V128.3H93.77V106.21c-3.72-1-6.53-3.25-7.54-5.91a5.26,5.26,0,0,1,1.34-6,5.37,5.37,0,0,1,5.82-.72c2.27,1,4.7,3.77,4.7,8.42v.59a20.33,20.33,0,0,0,2.92,0V102c0-4.65,2.42-7.4,4.7-8.42a5.35,5.35,0,0,1,5.81.72,5.25,5.25,0,0,1,1.34,6c-1,2.66-3.82,4.86-7.54,5.91Zm-3.81-.5h3.31v-22l.19,0c3.65-1,6.42-3.1,7.39-5.65a4.78,4.78,0,0,0-1.21-5.46,4.84,4.84,0,0,0-5.28-.64c-2.13,1-4.4,3.55-4.4,8V103l-.23,0a22.2,22.2,0,0,1-3.46,0l-.23,0V102c0-4.41-2.28-7-4.41-8a4.82,4.82,0,0,0-5.27.64,4.77,4.77,0,0,0-1.21,5.46c1,2.55,3.73,4.66,7.39,5.65l.18,0v22h3.32V106.37l.27,0a27.23,27.23,0,0,0,3.38,0l.27,0Zm2.65-.65h-2v-21.5l-.36,0a24.27,24.27,0,0,1-4.51,0l-.36,0v21.5h-2V105.31l-.25-.06c-5.45-1.31-7-4.43-7.37-5.36a4.13,4.13,0,0,1,1-4.73,4.18,4.18,0,0,1,4.57-.53c2,.87,4,3.26,4,7.36v1.64l.29,0a21.26,21.26,0,0,0,4.65,0l.29,0V102c0-4.1,2.08-6.49,4-7.36a4.18,4.18,0,0,1,4.57.53,4.12,4.12,0,0,1,1,4.73c-.35.93-1.92,4-7.36,5.36l-.26.06Zm-1.5-.5h1V104.92l.64-.15c5.2-1.26,6.69-4.19,7-5a3.57,3.57,0,0,0-4.93-4.64c-1.8.81-3.73,3-3.73,6.91v2.09l-.73.08a22.28,22.28,0,0,1-4.76,0l-.74-.08V102c0-3.86-1.92-6.1-3.72-6.91a3.71,3.71,0,0,0-4,.45,3.67,3.67,0,0,0-.89,4.19c.33.86,1.81,3.79,7,5l.63.15v21.73h1V105.1l.91.09a25.1,25.1,0,0,0,4.42,0l.9-.09Zm-7.23-22.73-1.06-.3c-2.88-.83-4.94-2.38-5.66-4.26a2.67,2.67,0,0,1,.63-3.08,2.74,2.74,0,0,1,3-.29c1.51.68,3.13,2.62,3.13,6ZM91,96.19a1.94,1.94,0,0,0-1.29.46,2.18,2.18,0,0,0-.49,2.53c.66,1.73,2.6,3.17,5.33,4l.42.12V102c0-3.15-1.47-4.92-2.84-5.54A2.77,2.77,0,0,0,91,96.19Zm12.7,7.73V102c0-3.38,1.62-5.32,3.14-6a2.74,2.74,0,0,1,3,.29,2.65,2.65,0,0,1,.62,3.08c-.71,1.88-2.78,3.43-5.66,4.26Zm4.47-7.73a2.81,2.81,0,0,0-1.13.26c-1.37.62-2.84,2.39-2.84,5.54v1.27l.42-.12c2.73-.79,4.68-2.23,5.33-4a2.19,2.19,0,0,0-.48-2.53A2,2,0,0,0,108.13,96.19Zm-3.31,6.2V102c0-2.87,1.27-4.45,2.45-5a1.58,1.58,0,0,1,1.72.1,1.49,1.49,0,0,1,.31,1.8c-.52,1.35-2,2.56-4.15,3.32Zm3.32-5a1.69,1.69,0,0,0-.66.15c-1,.45-2.07,1.78-2.15,4.17a5.82,5.82,0,0,0,3.5-2.9,1,1,0,0,0-.17-1.25A.79.79,0,0,0,108.14,97.35Zm-13.87,5-.33-.07c-2.12-.76-3.63-2-4.14-3.32a1.5,1.5,0,0,1,.3-1.8,1.57,1.57,0,0,1,1.72-.1c1.19.53,2.45,2.11,2.45,4.94Zm-3.31-5a.77.77,0,0,0-.53.17,1,1,0,0,0-.17,1.25,5.84,5.84,0,0,0,3.51,2.9c-.1-2.41-1.16-3.72-2.15-4.17A1.69,1.69,0,0,0,91,97.35Z"/><path class="cls-1" d="M99.55,144.22a5.86,5.86,0,0,1-5.45-3.77l-.29-.79h11.48l-.3.79A5.84,5.84,0,0,1,99.55,144.22Zm-4-3.4a4.66,4.66,0,0,0,8,0Z"/><path class="cls-1" d="M99.55,144.47a6.08,6.08,0,0,1-5.68-3.94l-.42-1.12h12.2l-.42,1.12A6.1,6.1,0,0,1,99.55,144.47Zm-5.38-4.56.17.45a5.56,5.56,0,0,0,10.42,0l.16-.45Zm5.38,3.4a5,5,0,0,1-4.2-2.36l-.23-.38H104l-.23.38A4.93,4.93,0,0,1,99.55,143.31ZM96,141.07a4.4,4.4,0,0,0,7,0Z"/></svg>