<svg id="Layer_1" data-name="Layer 1" xmlns="http://www.w3.org/2000/svg" viewBox="0 0 200 200"><defs><style>.cls-1{fill:#ef6c50;}</style></defs><path class="cls-1" d="M138.72,68.74l-5.55-1.67a1.21,1.21,0,0,0-1.33.43l-5.17,6.82-25.2-5.64A8.08,8.08,0,0,0,87.7,65.61l-26.86-6a1.23,1.23,0,0,0-1.45.88L58.18,65a1.23,1.23,0,0,0,.92,1.51l.24.06V99a1.23,1.23,0,0,0,2.45,0V67.15l23.63,5.28-6.71,56H62.56a1.23,1.23,0,0,0-1.22,1.23v9.06A1.22,1.22,0,0,0,62.56,140h64.51a1.23,1.23,0,0,0,1.23-1.22V129.7a1.23,1.23,0,0,0-1.23-1.23H108.74l-6.26-52.22,22.34,5,1,10.59a1.22,1.22,0,0,0,.94,1.08l2,.48v22.32a1.23,1.23,0,0,0,2.45,0V94l1.28.3a1.35,1.35,0,0,0,.28,0,1.23,1.23,0,0,0,1.08-.65l7-12.84a1.3,1.3,0,0,0,.14-.75l-1.39-10.33A1.23,1.23,0,0,0,138.72,68.74ZM85.31,94l15.92,5-17.86,11.2ZM103,100.76l2.3,19.18L84.6,112.26ZM85.6,91.47l1.84-15.35a8.08,8.08,0,0,0,12.56,0l2.47,20.66Zm8.12-26.11A5.66,5.66,0,0,1,99.37,71a5.88,5.88,0,0,1-.1.94,2.57,2.57,0,0,1-.08.38c0,.12-.07.24-.11.36a6.28,6.28,0,0,1-.46,1.07h0a5.61,5.61,0,0,1-10.5-2.33h0c0-.1,0-.19,0-.42a5.58,5.58,0,0,1,.1-1,2.73,2.73,0,0,1,.1-.41,4.13,4.13,0,0,1,.15-.5c.07-.18.14-.36.23-.54l.13-.23a5.09,5.09,0,0,1,.39-.63h0A5.64,5.64,0,0,1,93.72,65.36ZM61.46,62.25,86.28,67.8a9,9,0,0,0-.36,1l0,.12a8.76,8.76,0,0,0-.18.89l0,.14L60.87,64.44Zm64.39,75.28H63.79v-6.61h62.06Zm-44.68-9.06,1.71-14.23,22.7,8.44.69,5.79Zm51-36.79-4-1-1-10.6a1.2,1.2,0,0,0-1-1.08l-24-5.38-.29-2.38,25,5.59a1.21,1.21,0,0,0,1.24-.46l5.13-6.76,4,1.2L138.48,80Z"/></svg>