<svg id="Layer_1" data-name="Layer 1" xmlns="http://www.w3.org/2000/svg" viewBox="0 0 200 200"><defs><style>.cls-1{fill:#ef6c50;stroke:#ef6c50;stroke-miterlimit:10;}</style></defs><path class="cls-1" d="M142.06,126H84.22l33.15-16.77-.82-2H68.38l3.94-6.81h54.94ZM92.6,124h46l-12.49-21.6H73.47l-1.62,2.81H117.9l2,5Z"/><path class="cls-1" d="M148.38,136.94H51.62l1.05-2.54L67,109.59H110.1L78.53,125.47l-1.36,2.9h66.26Zm-93.71-2h90.24l-2.63-4.56H74L77,124l.31-.16,24.35-12.25H68.16Z"/><path class="cls-1" d="M111.85,102.76l-.68-.61c-.63-.58-15.46-14.24-15.46-23a16.14,16.14,0,1,1,32.28,0c0,8.71-14.84,22.37-15.47,23Zm0-37.7A14.16,14.16,0,0,0,97.71,79.2c0,6.85,11.24,18.06,14.14,20.84,2.9-2.78,14.14-14,14.14-20.84A14.16,14.16,0,0,0,111.85,65.06Zm0,22.21a9.08,9.08,0,1,1,9.07-9.07A9.08,9.08,0,0,1,111.85,87.27Zm0-16.15a7.08,7.08,0,1,0,7.07,7.08A7.09,7.09,0,0,0,111.85,71.12Z"/></svg>